#!OML:ASF F:\VICON\USERDATA\INSTALL\rory3\rory3.ASF
:FULLY-SPECIFIED
:DEGREES
822
root -0.0730105 23.3248 -7.94051 47.302 52.234 -343.578
lowerback -11.5571 -2.00792 -8.12104
upperback -13.8927 -1.8751 -10.9934
thorax -8.80121 -0.455756 -7.66876
lowerneck -15.5659 -10.256 -11.1371
upperneck 40.7383 -13.8546 5.9371
head 19.7748 -6.20343 1.91201
rclavicle -8.10048e-015 4.77083e-014
rhumerus 96.9078 -31.7155 -59.3002
rradius 54.3115
rwrist -88.9536
rhand -21.0523 8.91247
rfingers 7.12502
rthumb 5.32389 -21.0007
lclavicle -8.10048e-015 4.77083e-014
lhumerus 102.227 26.3319 43.5148
lradius 41.7703
lwrist 51.4218
lhand 28.2793 20.1984
lfingers 7.12502
lthumb 52.1535 40.2125
rfemur -2.78174 8.19256 19.8892
rtibia 32.3886
rfoot 32.3026 -25.4909
rtoes 33.0629
lfemur 162.396 190.359 177.273
ltibia 34.467
lfoot -41.5888 21.8992
ltoes 49.9438
823
root -0.0169135 23.3446 -8.09037 45.8805 50.3345 -346.504
lowerback -13.1602 -1.98096 -6.98499
upperback -14.4474 -1.74529 -10.4453
thorax -8.53047 -0.479406 -7.71406
lowerneck -14.9601 -10.198 -9.6099
upperneck 41.3254 -13.858 4.6503
head 19.6053 -6.1633 1.07404
rclavicle -3.67752e-015 4.13472e-014
rhumerus 96.5681 -31.7134 -60.0315
rradius 53.6674
rwrist -87.9884
rhand -20.6978 8.97055
rfingers 7.12502
rthumb 5.66612 -20.9337
lclavicle -3.67752e-015 4.13472e-014
lhumerus 101.088 27.2056 42.7536
lradius 41.7398
lwrist 51.1274
lhand 26.8903 19.9708
lfingers 7.12502
lthumb 50.8908 40.7129
rfemur -1.95233 8.38767 19.8683
rtibia 33.0528
rfoot 32.8324 -24.6992
rtoes 33.3113
lfemur 160.947 190.258 176.129
ltibia 33.9849
lfoot -44.4063 17.6871
ltoes 49.6866
824
root 0.0271406 23.3484 -8.23291 44.9478 48.3461 -348.993
lowerback -14.7161 -1.84563 -6.14716
upperback -14.9503 -1.4785 -9.93209
thorax -8.22477 -0.403601 -7.61978
lowerneck -13.6794 -9.87608 -8.22206
upperneck 40.4945 -13.6508 4.12734
head 18.4644 -6.02232 0.727012
rclavicle -8.54774e-015 -3.18055e-015
rhumerus 95.9913 -31.94 -60.4635
rradius 52.9877
rwrist -87.3297
rhand -19.6488 9.07186
rfingers 7.12502
rthumb 6.67882 -20.8028
lclavicle -8.54774e-015 -3.18055e-015
lhumerus 100.017 27.9874 42.1975
lradius 41.8998
lwrist 50.6775
lhand 25.8549 20.2773
lfingers 7.12502
lthumb 49.9449 41.5289
rfemur -1.01513 8.19619 19.4764
rtibia 33.2152
rfoot 34.2045 -23.2559
rtoes 32.4538
lfemur 159.18 190.557 175.228
ltibia 33.6446
lfoot -47.0526 12.231
ltoes 49.9192
825
root 0.0710527 23.3415 -8.36918 44.073 46.6488 -351.625
lowerback -16.4204 -1.65899 -5.03074
upperback -15.2785 -1.17536 -9.13569
thorax -7.62939 -0.321472 -7.34067
lowerneck -13.6469 -9.82061 -8.82748
upperneck 40.7785 -13.5559 4.44056
head 18.733 -6.03523 0.987276
rclavicle 2.75317e-014 9.54166e-015
rhumerus 96.3267 -32.0769 -60.919
rradius 51.9092
rwrist -86.5965
rhand -18.6038 9.2988
rfingers 7.12502
rthumb 7.68756 -20.5415
lclavicle 2.75317e-014 9.54166e-015
lhumerus 98.6669 29.3802 41.4698
lradius 42.2532
lwrist 50.3531
lhand 24.3226 20.4209
lfingers 7.12502
lthumb 48.5385 42.3785
rfemur 0.0118118 8.22593 19.3953
rtibia 33.007
rfoot 35.3984 -22.331
rtoes 31.4021
lfemur 157.165 191.327 175.102
ltibia 33.3686
lfoot -49.1243 6.43647
ltoes 50.3906
826
root 0.123466 23.339 -8.48786 42.8949 45.4895 -354.831
lowerback -18.0005 -1.35418 -3.11986
upperback -15.6277 -0.874619 -8.13003
thorax -7.14968 -0.303459 -7.28198
lowerneck -13.893 -9.71955 -9.27003
upperneck 41.2617 -13.287 4.42017
head 19.124 -5.98825 1.09132
rclavicle 3.04638e-014 7.95139e-014
rhumerus 96.5085 -31.9691 -61.2955
rradius 51.1323
rwrist -85.7672
rhand -18.2034 9.71126
rfingers 7.12502
rthumb 8.07405 -20.1145
lclavicle 3.04638e-014 7.95139e-014
lhumerus 96.6557 30.9469 39.9714
lradius 42.8915
lwrist 50.3543
lhand 22.0564 20.6452
lfingers 7.12502
lthumb 46.4457 43.5518
rfemur 1.17123 8.78801 20.1745
rtibia 32.5691
rfoot 35.6016 -23.2639
rtoes 31.928
lfemur 154.598 191.363 175.903
ltibia 33.1164
lfoot -50.4399 6.35625
ltoes 50.4985
827
root 0.16676 23.3174 -8.61569 41.8205 44.6235 -358.169
lowerback -19.5134 -0.927872 -0.871976
upperback -16.0188 -0.526069 -7.14062
thorax -6.78479 -0.288285 -7.43848
lowerneck -13.7665 -9.6128 -9.4226
upperneck 41.4649 -13.0594 4.28944
head 19.1938 -5.94837 1.10861
rclavicle 4.58199e-014 3.65764e-014
rhumerus 96.2903 -32.0175 -61.4795
rradius 50.8524
rwrist -85.5283
rhand -18.7498 9.7832
rfingers 7.12502
rthumb 7.54669 -20.0622
lclavicle 4.58199e-014 3.65764e-014
lhumerus 94.903 32.0435 38.9006
lradius 43.2111
lwrist 48.8948
lhand 20.6352 20.4303
lfingers 7.12502
lthumb 45.1263 43.88
rfemur 2.1629 9.31855 21.2062
rtibia 32.1098
rfoot 35.3321 -24.8663
rtoes 32.5455
lfemur 152.121 192.197 177.692
ltibia 32.7185
lfoot -52.5263 3.90845
ltoes 50.1365
828
root 0.195256 23.2932 -8.73309 41.0163 43.3459 -361.175
lowerback -20.8114 -0.423065 0.767969
upperback -16.3818 -0.0609196 -6.21001
thorax -6.49265 -0.154198 -7.2887
lowerneck -13.3848 -9.50487 -9.44507
upperneck 41.4603 -12.8901 4.19445
head 19.0564 -5.91722 1.12319
rclavicle -1.01132e-013 9.54166e-015
rhumerus 95.9653 -32.2139 -61.6168
rradius 50.4859
rwrist -85.538
rhand -19.2767 9.36871
rfingers 7.12502
rthumb 7.03803 -20.4943
lclavicle -1.01132e-013 9.54166e-015
lhumerus 93.2937 33.1388 38.1357
lradius 43.4387
lwrist 46.7209
lhand 20.1009 19.8822
lfingers 7.12502
lthumb 44.6291 43.5264
rfemur 3.10726 10.4086 21.8981
rtibia 31.6044
rfoot 34.0244 -27.8944
rtoes 34.8029
lfemur 149.708 192.96 179.44
ltibia 32.2431
lfoot -54.6322 0.478471
ltoes 49.5198
829
root 0.212377 23.2625 -8.85903 40.4956 41.416 -363.554
lowerback -21.623 0.166024 1.68789
upperback -16.7032 0.569783 -5.49479
thorax -6.37627 0.11842 -6.92673
lowerneck -13.1009 -9.43002 -9.4106
upperneck 41.4998 -12.8063 4.14807
head 18.9836 -5.89843 1.12775
rclavicle 2.72335e-014 -3.49861e-014
rhumerus 95.7162 -32.5674 -61.8004
rradius 49.9901
rwrist -85.8544
rhand -19.8292 8.53143
rfingers 7.12502
rthumb 6.50473 -21.3487
lclavicle 2.72335e-014 -3.49861e-014
lhumerus 91.7017 34.3346 37.2036
lradius 43.7186
lwrist 45.2323
lhand 19.6995 19.746
lfingers 7.12502
lthumb 44.2551 43.5331
rfemur 4.1289 11.4587 21.6875
rtibia 31.2257
rfoot 31.7761 -31.6019
rtoes 39.2376
lfemur 147.716 194.265 180.868
ltibia 31.5231
lfoot -56.8454 -3.28964
ltoes 49.4071
830
root 0.23543 23.2098 -9.00615 39.4877 39.6435 -366.029
lowerback -21.8054 0.82177 3.03737
upperback -16.8754 1.19431 -4.73727
thorax -6.40703 0.34123 -6.75649
lowerneck -13.1648 -9.30379 -9.45026
upperneck 41.678 -12.597 4.09468
head 19.0882 -5.82927 1.15004
rclavicle -1.67476e-014 -1.59028e-015
rhumerus 95.4236 -32.7857 -62.0256
rradius 49.9772
rwrist -86.5361
rhand -21.119 7.60224
rfingers 7.12502
rthumb 5.25941 -22.3125
lclavicle -1.67476e-014 -1.59028e-015
lhumerus 89.8892 35.6257 36.0126
lradius 43.9215
lwrist 44.1552
lhand 18.7777 19.9257
lfingers 7.12502
lthumb 43.3947 44.0307
rfemur 5.60808 11.6051 21.3799
rtibia 30.8568
rfoot 30.7413 -33.3248
rtoes 41.632
lfemur 146.371 195.065 182.499
ltibia 30.6254
lfoot -57.9142 -5.77528
ltoes 49.9601
831
root 0.265513 23.1453 -9.14843 38.4754 37.7081 -368.348
lowerback -21.7904 1.4105 4.23877
upperback -16.9587 1.75365 -3.89746
thorax -6.44085 0.548713 -6.41751
lowerneck -13.0882 -9.15006 -9.60713
upperneck 41.5861 -12.3946 4.23931
head 19.0207 -5.76561 1.29137
rclavicle -3.19546e-014 1.59028e-015
rhumerus 95.2827 -32.8226 -62.2795
rradius 49.6528
rwrist -86.6631
rhand -21.4176 7.56199
rfingers 7.12502
rthumb 4.97116 -22.3597
lclavicle -3.19546e-014 1.59028e-015
lhumerus 87.7961 37.0255 34.6378
lradius 43.9749
lwrist 42.7642
lhand 17.889 19.6713
lfingers 7.12502
lthumb 42.5637 44.0697
rfemur 7.17995 11.3565 20.6259
rtibia 30.4156
rfoot 31.2187 -33.3443
rtoes 41.6932
lfemur 145.442 195.807 184.149
ltibia 29.5984
lfoot -58.6583 -7.70635
ltoes 50.7775
